#!OML:ASF F:\VICON\USERDATA\INSTALL\rory3\rory3.ASF
:FULLY-SPECIFIED
:DEGREES
892
root 10.9663 17.6961 -0.936365 -180.527 -30.2979 175.729
lowerback 13.1449 1.97324 -4.74073
upperback 0.575127 1.814 -0.0754663
thorax -6.925 0.996038 2.25805
lowerneck -19.3253 -0.1206 -11.0106
upperneck 37.4492 -0.54383 5.67848
head 16.8571 -1.7985 4.15993
rclavicle 8.17875e-014 1.59028e-015
rhumerus -36.9228 -20.6031 -72.3865
rradius 30.9105
rwrist 10.8792
rhand -16.3323 11.2041
rfingers 7.12502
rthumb 9.87954 -18.5441
lclavicle 8.17875e-014 1.59028e-015
lhumerus -28.0097 0.888119 81.1697
lradius 29.9623
lwrist -3.83208
lhand -19.2673 25.2469
lfingers 7.12502
lthumb 7.04715 55.1096
rfemur -13.5806 -13.006 16.624
rtibia 52.5529
rfoot -24.4747 9.37576
rtoes -26.6791
lfemur -5.50438 -11.5347 -21.9771
ltibia 25.5242
lfoot -15.0514 -14.7833
ltoes -3.15862
893
root 10.9448 17.6833 -0.885815 -180.338 -30.3296 175.665
lowerback 13.1061 2.01821 -4.75629
upperback 0.489447 1.87035 -0.137462
thorax -6.99767 1.02724 2.18934
lowerneck -19.2925 -0.134395 -11.1006
upperneck 37.4359 -0.543395 5.71353
head 16.8426 -1.80478 4.19134
rclavicle -5.33613e-014 -1.82882e-014
rhumerus -36.96 -20.5356 -72.596
rradius 31.0328
rwrist 10.6351
rhand -16.4838 11.3475
rfingers 7.12502
rthumb 9.7334 -18.4075
lclavicle -5.33613e-014 -1.82882e-014
lhumerus -27.7785 1.03106 80.9806
lradius 29.838
lwrist -3.77683
lhand -19.2115 25.2936
lfingers 7.12502
lthumb 7.10103 55.1544
rfemur -13.4869 -13.3488 17.4563
rtibia 52.4415
rfoot -23.8637 9.58824
rtoes -26.4064
lfemur -6.01337 -11.3027 -22.079
ltibia 25.883
lfoot -15.1136 -15.1671
ltoes -2.3001
894
root 10.9239 17.6731 -0.835948 -180.171 -30.3736 175.63
lowerback 13.0729 2.01879 -4.73417
upperback 0.380414 1.87322 -0.201566
thorax -7.09295 1.03226 2.10697
lowerneck -19.1553 -0.126101 -11.1671
upperneck 37.362 -0.535308 5.75574
head 16.7681 -1.80161 4.21878
rclavicle -5.40446e-015 9.93923e-015
rhumerus -36.9856 -20.7416 -72.7104
rradius 30.9999
rwrist 10.6249
rhand -16.4999 11.5657
rfingers 7.12502
rthumb 9.71784 -18.1901
lclavicle -5.40446e-015 9.93923e-015
lhumerus -27.6741 1.06192 80.7458
lradius 29.7859
lwrist -3.63652
lhand -19.3317 25.183
lfingers 7.12502
lthumb 6.98492 55.0477
rfemur -13.3208 -13.5786 18.2957
rtibia 52.1542
rfoot -22.298 9.83394
rtoes -22.6478
lfemur -6.52433 -10.9325 -22.142
ltibia 26.1919
lfoot -14.9328 -15.8535
ltoes -0.366018
895
root 10.9012 17.6733 -0.793464 -180.111 -30.3488 175.643
lowerback 12.9973 2.01109 -4.68166
upperback 0.32035 1.87173 -0.261634
thorax -7.11068 1.03113 2.01461
lowerneck -19.0318 -0.124119 -11.1088
upperneck 37.2236 -0.548979 5.7419
head 16.6656 -1.79058 4.19266
rclavicle 8.72292e-014 -6.36111e-015
rhumerus -37.1854 -20.7844 -72.9142
rradius 31.283
rwrist 10.4781
rhand -16.367 11.4475
rfingers 7.12502
rthumb 9.84613 -18.3023
lclavicle 8.72292e-014 -6.36111e-015
lhumerus -27.5684 1.2377 80.4221
lradius 29.6771
lwrist -3.63351
lhand -19.3789 25.1684
lfingers 7.12502
lthumb 6.9394 55.0346
rfemur -12.994 -13.4683 19.0931
rtibia 51.689
rfoot -20.7534 9.92202
rtoes -20.1216
lfemur -6.84372 -10.5447 -22.1873
ltibia 26.3885
lfoot -14.8904 -16.3146
ltoes 0.0323988
896
root 10.8743 17.6772 -0.754582 -180.057 -30.274 175.556
lowerback 12.8694 2.04456 -4.68798
upperback 0.345871 1.91879 -0.310474
thorax -7.01332 1.05092 1.96099
lowerneck -19.0142 -0.136205 -11.1038
upperneck 37.0982 -0.51516 5.66827
head 16.5925 -1.77301 4.16084
rclavicle 7.41715e-015 -1.39149e-014
rhumerus -37.1523 -20.6268 -73.1345
rradius 31.3378
rwrist 10.1301
rhand -16.4655 11.2323
rfingers 7.12502
rthumb 9.7511 -18.522
lclavicle 7.41715e-015 -1.39149e-014
lhumerus -27.2872 1.57562 80.1489
lradius 29.4955
lwrist -3.9073
lhand -18.8715 25.7533
lfingers 7.12502
lthumb 7.42914 55.6028
rfemur -12.5519 -13.1693 19.6722
rtibia 51.068
rfoot -19.0887 10.2308
rtoes -20.1059
lfemur -6.98175 -10.2179 -22.3606
ltibia 26.4369
lfoot -14.9983 -16.544
ltoes -0.343347
897
root 10.8474 17.6783 -0.711347 -179.87 -30.2321 175.303
lowerback 12.7424 2.11988 -4.75465
upperback 0.368654 2.00977 -0.388208
thorax -6.92373 1.0935 1.90255
lowerneck -19.1143 -0.178129 -11.2183
upperneck 37.1402 -0.504507 5.64154
head 16.6403 -1.78817 4.17492
rclavicle 2.05866e-014 2.38542e-015
rhumerus -37.0218 -20.7879 -73.1629
rradius 31.11
rwrist 9.96389
rhand -16.7096 11.297
rfingers 7.12502
rthumb 9.51557 -18.4681
lclavicle 2.05866e-014 2.38542e-015
lhumerus -27.0084 1.65286 80.0659
lradius 29.4145
lwrist -4.0558
lhand -18.6098 26.3007
lfingers 7.12502
lthumb 7.68177 56.1411
rfemur -12.1494 -12.9098 20.0361
rtibia 50.3296
rfoot -17.374 10.5511
rtoes -3.37284
lfemur -7.0897 -9.95051 -22.6696
ltibia 26.3215
lfoot -14.7725 -16.9614
ltoes 0.837089
898
root 10.8222 17.6802 -0.665679 -179.619 -30.1556 175.04
lowerback 12.6718 2.20412 -4.76657
upperback 0.289057 2.11415 -0.514289
thorax -6.97221 1.14526 1.75603
lowerneck -19.0758 -0.190703 -11.1993
upperneck 37.1846 -0.496938 5.5229
head 16.6545 -1.80382 4.11979
rclavicle -6.97858e-014 -6.75868e-015
rhumerus -37.1541 -20.9714 -73.1995
rradius 31.1202
rwrist 9.83345
rhand -16.6883 11.0287
rfingers 7.12502
rthumb 9.53612 -18.7355
lclavicle -6.97858e-014 -6.75868e-015
lhumerus -26.9014 1.65636 79.9606
lradius 29.3407
lwrist -4.05364
lhand -18.8891 25.9033
lfingers 7.12502
lthumb 7.41217 55.7535
rfemur -11.7876 -12.4597 20.3718
rtibia 49.4492
rfoot -16.1704 10.1586
rtoes 5.94517
lfemur -7.2289 -9.72123 -22.9561
ltibia 26.1259
lfoot -14.2726 -17.4831
ltoes 3.00429
899
root 10.797 17.6859 -0.621567 -179.435 -30.0536 174.794
lowerback 12.6863 2.30117 -4.72745
upperback 0.205977 2.23795 -0.630911
thorax -7.07148 1.20542 1.58439
lowerneck -18.9226 -0.162947 -11.1569
upperneck 37.1598 -0.423989 5.3459
head 16.5959 -1.79374 4.04195
rclavicle -2.74571e-015 4.37326e-015
rhumerus -37.2941 -21.0139 -73.2302
rradius 31.1499
rwrist 9.68947
rhand -16.603 10.6823
rfingers 7.12502
rthumb 9.61843 -19.0781
lclavicle -2.74571e-015 4.37326e-015
lhumerus -26.7613 2.03858 79.7718
lradius 29.0824
lwrist -4.68388
lhand -18.5251 25.9221
lfingers 7.12502
lthumb 7.76357 55.7596
rfemur -11.3342 -11.7642 20.6619
rtibia 48.4227
rfoot -15.5888 8.89046
rtoes 10.5261
lfemur -7.31074 -9.39064 -23.2377
ltibia 25.9467
lfoot -14.101 -17.827
ltoes 3.47195
900
root 10.7711 17.6893 -0.579467 -179.373 -29.9568 174.684
lowerback 12.7316 2.36577 -4.55694
upperback 0.151188 2.34227 -0.683936
thorax -7.15285 1.25207 1.40946
lowerneck -18.7944 -0.0889517 -11.169
upperneck 37.1437 -0.256429 5.17405
head 16.537 -1.75201 3.99453
rclavicle 2.01518e-014 2.50469e-014
rhumerus -37.4632 -21.0699 -73.1693
rradius 31.2008
rwrist 9.54434
rhand -16.5231 10.803
rfingers 7.12502
rthumb 9.69553 -18.9538
lclavicle 2.01518e-014 2.50469e-014
lhumerus -26.6135 2.25145 79.7186
lradius 28.8549
lwrist -4.87347
lhand -18.9013 26.1455
lfingers 7.12502
lthumb 7.4004 55.996
rfemur -10.7968 -10.9528 21.0149
rtibia 47.262
rfoot -17.3092 3.93126
rtoes 3.11713
lfemur -7.37657 -9.04349 -23.3957
ltibia 25.8728
lfoot -14.1996 -18.1264
ltoes 3.05107
901
root 10.7465 17.6867 -0.530276 -179.296 -29.7918 174.687
lowerback 12.8091 2.43745 -4.28252
upperback 0.0306283 2.47206 -0.726188
thorax -7.3192 1.31069 1.1794
lowerneck -18.8485 -0.0100739 -11.1551
upperneck 37.3771 -0.0913037 4.98205
head 16.6547 -1.7318 3.94277
rclavicle 1.01169e-013 0
rhumerus -37.6876 -21.1074 -73.1373
rradius 31.2481
rwrist 9.37426
rhand -16.4672 10.5224
rfingers 7.12502
rthumb 9.74938 -19.2319
lclavicle 1.01169e-013 0
lhumerus -26.565 1.86544 79.869
lradius 28.8163
lwrist -3.98812
lhand -20.352 25.8523
lfingers 7.12502
lthumb 6 55.7474
rfemur -10.3755 -10.007 21.4006
rtibia 46.031
rfoot -18.8497 -0.222558
rtoes -2.12685
lfemur -7.58527 -8.83561 -23.4368
ltibia 25.9233
lfoot -14.1858 -18.3224
ltoes 3.33201
902
root 10.7223 17.682 -0.474111 -179.177 -29.5446 174.849
lowerback 12.8308 2.51291 -3.85872
upperback -0.142089 2.63757 -0.741647
thorax -7.50451 1.38329 0.886879
lowerneck -18.7974 0.0513794 -11.2332
upperneck 37.5443 0.0146085 4.92746
head 16.7181 -1.72666 3.95437
rclavicle -1.39398e-014 4.37326e-015
rhumerus -37.6345 -21.0848 -73.1438
rradius 30.845
rwrist 9.26845
rhand -16.5257 10.5312
rfingers 7.12502
rthumb 9.69302 -19.2258
lclavicle -1.39398e-014 4.37326e-015
lhumerus -26.4911 1.93177 79.8624
lradius 28.6902
lwrist -3.89313
lhand -20.5953 25.6552
lfingers 7.12502
lthumb 5.76505 55.5567
rfemur -10.1597 -9.14139 21.8571
rtibia 44.8122
rfoot -19.6422 -2.69821
rtoes -3.79624
lfemur -8.00392 -8.63985 -23.3212
ltibia 26.0933
lfoot -14.1116 -18.4075
ltoes 2.84985
903
root 10.6951 17.6812 -0.424725 -179.14 -29.4183 175.097
lowerback 12.7917 2.54734 -3.32112
upperback -0.253593 2.77191 -0.731641
thorax -7.58146 1.43365 0.567646
lowerneck -18.6614 0.0920785 -11.3881
upperneck 37.5431 0.0802728 5.00242
head 16.675 -1.71452 4.02514
rclavicle -4.12602e-014 1.80894e-014
rhumerus -37.499 -21.1833 -73.0742
rradius 30.401
rwrist 9.31859
rhand -16.415 10.6968
rfingers 7.12502
rthumb 9.79979 -19.0552
lclavicle -4.12602e-014 1.80894e-014
lhumerus -26.2927 2.55422 79.6987
lradius 28.3615
lwrist -4.92017
lhand -20.2806 25.716
lfingers 7.12502
lthumb 6.06893 55.6091
rfemur -9.87273 -8.59513 22.2881
rtibia 43.6652
rfoot -19.6608 -3.26189
rtoes -1.61762
lfemur -8.40927 -8.44611 -23.15
ltibia 26.3164
lfoot -14.2954 -18.4354
ltoes 1.99089
904
root 10.6662 17.6849 -0.376236 -179.142 -29.396 175.24
lowerback 12.83 2.56954 -2.79798
upperback -0.315303 2.8806 -0.748299
thorax -7.64508 1.46866 0.231667
lowerneck -18.6819 0.157977 -11.5049
upperneck 37.6646 0.188923 5.07124
head 16.7298 -1.68768 4.10124
rclavicle -6.18593e-014 -2.3059e-014
rhumerus -37.5103 -21.3349 -72.9655
rradius 30.1935
rwrist 9.30164
rhand -16.2713 10.5958
rfingers 7.12502
rthumb 9.93843 -19.1496
lclavicle -6.18593e-014 -2.3059e-014
lhumerus -26.1991 2.50745 79.7791
lradius 28.2334
lwrist -4.98748
lhand -20.3364 25.9041
lfingers 7.12502
lthumb 6.015 55.7987
rfemur -9.4714 -8.21217 22.4932
rtibia 42.6328
rfoot -19.5546 -3.2014
rtoes 0.63578
lfemur -8.71437 -8.26633 -23.1063
ltibia 26.4984
lfoot -14.6114 -18.5167
ltoes 2.83222
